<svg xmlns="http://www.w3.org/2000/svg" xmlns:xlink="http://www.w3.org/1999/xlink" contentStyleType="text/css" data-diagram-type="CLASS" height="1116px" preserveAspectRatio="none" style="width:435px;height:1116px;background:#FFFFFF;" version="1.1" viewBox="0 0 435 1116" width="435px" zoomAndPan="magnify"><defs/><g><!--class Item--><g class="entity" data-entity="Item" data-source-line="1" data-uid="ent0002" id="entity_Item"><rect fill="#F1F1F1" height="194.6719" rx="2.5" ry="2.5" style="stroke:#181818;stroke-width:0.5;" width="190.5957" x="132.11" y="707.93"/><ellipse cx="207.2233" cy="723.93" fill="#ADD1B2" rx="11" ry="11" style="stroke:#181818;stroke-width:1;"/><path d="M210.192,729.5706 Q209.6139,729.8675 208.9733,730.0081 Q208.3327,730.1644 207.6295,730.1644 Q205.1295,730.1644 203.8014,728.5237 Q202.4889,726.8675 202.4889,723.7425 Q202.4889,720.6175 203.8014,718.9612 Q205.1295,717.305 207.6295,717.305 Q208.3327,717.305 208.9733,717.4612 Q209.6295,717.6175 210.192,717.9144 L210.192,720.6331 Q209.567,720.055 208.9733,719.7894 Q208.3795,719.5081 207.7545,719.5081 Q206.4108,719.5081 205.7233,720.5862 Q205.0358,721.6487 205.0358,723.7425 Q205.0358,725.8362 205.7233,726.9144 Q206.4108,727.9769 207.7545,727.9769 Q208.3795,727.9769 208.9733,727.7112 Q209.567,727.43 210.192,726.8519 L210.192,729.5706 Z " fill="#000000"/><text fill="#000000" font-family="sans-serif" font-size="14" lengthAdjust="spacing" textLength="31.8691" x="227.7233" y="728.7767">Item</text><line style="stroke:#181818;stroke-width:0.5;" x1="133.11" x2="321.7057" y1="739.93" y2="739.93"/><rect fill="none" height="6" style="stroke:#C82930;stroke-width:1;" width="6" x="140.11" y="750.5784"/><text fill="#000000" font-family="sans-serif" font-size="14" lengthAdjust="spacing" textLength="57.3467" x="152.11" y="756.9251">id: UUID</text><rect fill="none" height="6" style="stroke:#C82930;stroke-width:1;" width="6" x="140.11" y="766.8753"/><text fill="#000000" font-family="sans-serif" font-size="14" lengthAdjust="spacing" textLength="90.6514" x="152.11" y="773.222">name: String</text><rect fill="none" height="6" style="stroke:#C82930;stroke-width:1;" width="6" x="140.11" y="783.1722"/><text fill="#000000" font-family="sans-serif" font-size="14" lengthAdjust="spacing" textLength="128.7891" x="152.11" y="789.5189">description: String</text><rect fill="none" height="6" style="stroke:#C82930;stroke-width:1;" width="6" x="140.11" y="799.4691"/><text fill="#000000" font-family="sans-serif" font-size="14" lengthAdjust="spacing" textLength="134.9893" x="152.11" y="805.8157">category: Category</text><rect fill="none" height="6" style="stroke:#C82930;stroke-width:1;" width="6" x="140.11" y="815.7659"/><text fill="#000000" font-family="sans-serif" font-size="14" lengthAdjust="spacing" textLength="117.8926" x="152.11" y="822.1126">quantity: Integer</text><line style="stroke:#181818;stroke-width:0.5;" x1="133.11" x2="321.7057" y1="829.4144" y2="829.4144"/><ellipse cx="143.11" cy="843.0628" fill="#84BE84" rx="3" ry="3" style="stroke:#038048;stroke-width:1;"/><text fill="#000000" font-family="sans-serif" font-size="14" lengthAdjust="spacing" textLength="107.9395" x="152.11" y="846.4095">addItem(): void</text><ellipse cx="143.11" cy="859.3597" fill="#84BE84" rx="3" ry="3" style="stroke:#038048;stroke-width:1;"/><text fill="#000000" font-family="sans-serif" font-size="14" lengthAdjust="spacing" textLength="130.915" x="152.11" y="862.7064">updateItem(): void</text><ellipse cx="143.11" cy="875.6566" fill="#84BE84" rx="3" ry="3" style="stroke:#038048;stroke-width:1;"/><text fill="#000000" font-family="sans-serif" font-size="14" lengthAdjust="spacing" textLength="125.6924" x="152.11" y="879.0032">deleteItem(): void</text><ellipse cx="143.11" cy="891.9534" fill="#84BE84" rx="3" ry="3" style="stroke:#038048;stroke-width:1;"/><text fill="#000000" font-family="sans-serif" font-size="14" lengthAdjust="spacing" textLength="164.5957" x="152.11" y="895.3001">getDescription(): String</text></g><!--class Category--><g class="entity" data-entity="Category" data-source-line="13" data-uid="ent0003" id="entity_Category"><rect fill="#F1F1F1" height="129.4844" rx="2.5" ry="2.5" style="stroke:#181818;stroke-width:0.5;" width="188.9961" x="122.91" y="979.61"/><ellipse cx="181.1829" cy="995.61" fill="#ADD1B2" rx="11" ry="11" style="stroke:#181818;stroke-width:1;"/><path d="M184.1517,1001.2506 Q183.5736,1001.5475 182.9329,1001.6881 Q182.2923,1001.8444 181.5892,1001.8444 Q179.0892,1001.8444 177.7611,1000.2037 Q176.4486,998.5475 176.4486,995.4225 Q176.4486,992.2975 177.7611,990.6412 Q179.0892,988.985 181.5892,988.985 Q182.2923,988.985 182.9329,989.1412 Q183.5892,989.2975 184.1517,989.5944 L184.1517,992.3131 Q183.5267,991.735 182.9329,991.4694 Q182.3392,991.1881 181.7142,991.1881 Q180.3704,991.1881 179.6829,992.2662 Q178.9954,993.3287 178.9954,995.4225 Q178.9954,997.5162 179.6829,998.5944 Q180.3704,999.6569 181.7142,999.6569 Q182.3392,999.6569 182.9329,999.3912 Q183.5267,999.11 184.1517,998.5319 L184.1517,1001.2506 Z " fill="#000000"/><text fill="#000000" font-family="sans-serif" font-size="14" lengthAdjust="spacing" textLength="63.9502" x="201.6829" y="1000.4567">Category</text><line style="stroke:#181818;stroke-width:0.5;" x1="123.91" x2="310.9061" y1="1011.61" y2="1011.61"/><rect fill="none" height="6" style="stroke:#C82930;stroke-width:1;" width="6" x="130.91" y="1022.2584"/><text fill="#000000" font-family="sans-serif" font-size="14" lengthAdjust="spacing" textLength="57.3467" x="142.91" y="1028.6051">id: UUID</text><rect fill="none" height="6" style="stroke:#C82930;stroke-width:1;" width="6" x="130.91" y="1038.5553"/><text fill="#000000" font-family="sans-serif" font-size="14" lengthAdjust="spacing" textLength="90.6514" x="142.91" y="1044.902">name: String</text><line style="stroke:#181818;stroke-width:0.5;" x1="123.91" x2="310.9061" y1="1052.2038" y2="1052.2038"/><ellipse cx="133.91" cy="1065.8522" fill="#84BE84" rx="3" ry="3" style="stroke:#038048;stroke-width:1;"/><text fill="#000000" font-family="sans-serif" font-size="14" lengthAdjust="spacing" textLength="140.0205" x="142.91" y="1069.1989">addCategory(): void</text><ellipse cx="133.91" cy="1082.1491" fill="#84BE84" rx="3" ry="3" style="stroke:#038048;stroke-width:1;"/><text fill="#000000" font-family="sans-serif" font-size="14" lengthAdjust="spacing" textLength="162.9961" x="142.91" y="1085.4957">updateCategory(): void</text><ellipse cx="133.91" cy="1098.4459" fill="#84BE84" rx="3" ry="3" style="stroke:#038048;stroke-width:1;"/><text fill="#000000" font-family="sans-serif" font-size="14" lengthAdjust="spacing" textLength="157.7734" x="142.91" y="1101.7926">deleteCategory(): void</text></g><!--class Inventory--><g class="entity" data-entity="Inventory" data-source-line="21" data-uid="ent0004" id="entity_Inventory"><rect fill="#F1F1F1" height="162.0781" rx="2.5" ry="2.5" style="stroke:#181818;stroke-width:0.5;" width="295.8076" x="132.51" y="468.86"/><ellipse cx="242.7292" cy="484.86" fill="#ADD1B2" rx="11" ry="11" style="stroke:#181818;stroke-width:1;"/><path d="M245.698,490.5006 Q245.1199,490.7975 244.4792,490.9381 Q243.8386,491.0944 243.1355,491.0944 Q240.6355,491.0944 239.3074,489.4537 Q237.9949,487.7975 237.9949,484.6725 Q237.9949,481.5475 239.3074,479.8912 Q240.6355,478.235 243.1355,478.235 Q243.8386,478.235 244.4792,478.3912 Q245.1355,478.5475 245.698,478.8444 L245.698,481.5631 Q245.073,480.985 244.4792,480.7194 Q243.8855,480.4381 243.2605,480.4381 Q241.9167,480.4381 241.2292,481.5162 Q240.5417,482.5787 240.5417,484.6725 Q240.5417,486.7662 241.2292,487.8444 Q241.9167,488.9069 243.2605,488.9069 Q243.8855,488.9069 244.4792,488.6412 Q245.073,488.36 245.698,487.7819 L245.698,490.5006 Z " fill="#000000"/><text fill="#000000" font-family="sans-serif" font-size="14" lengthAdjust="spacing" textLength="66.8691" x="263.2292" y="489.7067">Inventory</text><line style="stroke:#181818;stroke-width:0.5;" x1="133.51" x2="427.3176" y1="500.86" y2="500.86"/><rect fill="none" height="6" style="stroke:#C82930;stroke-width:1;" width="6" x="140.51" y="511.5084"/><text fill="#000000" font-family="sans-serif" font-size="14" lengthAdjust="spacing" textLength="57.3467" x="152.51" y="517.8551">id: UUID</text><rect fill="none" height="6" style="stroke:#C82930;stroke-width:1;" width="6" x="140.51" y="527.8053"/><text fill="#000000" font-family="sans-serif" font-size="14" lengthAdjust="spacing" textLength="127.8936" x="152.51" y="534.152">items: List&lt;Item&gt;</text><rect fill="none" height="6" style="stroke:#C82930;stroke-width:1;" width="6" x="140.51" y="544.1022"/><text fill="#000000" font-family="sans-serif" font-size="14" lengthAdjust="spacing" textLength="194.4346" x="152.51" y="550.4489">categories: List&lt;Category&gt;</text><line style="stroke:#181818;stroke-width:0.5;" x1="133.51" x2="427.3176" y1="557.7506" y2="557.7506"/><ellipse cx="143.51" cy="571.3991" fill="#84BE84" rx="3" ry="3" style="stroke:#038048;stroke-width:1;"/><text fill="#000000" font-family="sans-serif" font-size="14" lengthAdjust="spacing" textLength="223.7949" x="152.51" y="574.7457">addItemToInventory(Item): void</text><ellipse cx="143.51" cy="587.6959" fill="#84BE84" rx="3" ry="3" style="stroke:#038048;stroke-width:1;"/><text fill="#000000" font-family="sans-serif" font-size="14" lengthAdjust="spacing" textLength="269.8076" x="152.51" y="591.0426">removeItemFromInventory(Item): void</text><ellipse cx="143.51" cy="603.9928" fill="#84BE84" rx="3" ry="3" style="stroke:#038048;stroke-width:1;"/><text fill="#000000" font-family="sans-serif" font-size="14" lengthAdjust="spacing" textLength="167.6787" x="152.51" y="607.3395">getTotalItems(): Integer</text><ellipse cx="143.51" cy="620.2897" fill="#84BE84" rx="3" ry="3" style="stroke:#038048;stroke-width:1;"/><text fill="#000000" font-family="sans-serif" font-size="14" lengthAdjust="spacing" textLength="230.4258" x="152.51" y="623.6364">getCategories(): List&lt;Category&gt;</text></g><!--class User--><g class="entity" data-entity="User" data-source-line="31" data-uid="ent0005" id="entity_User"><rect fill="#F1F1F1" height="194.6719" rx="2.5" ry="2.5" style="stroke:#181818;stroke-width:0.5;" width="202.8184" x="7" y="197.18"/><ellipse cx="88.2041" cy="213.18" fill="#ADD1B2" rx="11" ry="11" style="stroke:#181818;stroke-width:1;"/><path d="M91.1729,218.8206 Q90.5947,219.1175 89.9541,219.2581 Q89.3135,219.4144 88.6104,219.4144 Q86.1104,219.4144 84.7822,217.7737 Q83.4697,216.1175 83.4697,212.9925 Q83.4697,209.8675 84.7822,208.2112 Q86.1104,206.555 88.6104,206.555 Q89.3135,206.555 89.9541,206.7112 Q90.6104,206.8675 91.1729,207.1644 L91.1729,209.8831 Q90.5479,209.305 89.9541,209.0394 Q89.3604,208.7581 88.7354,208.7581 Q87.3916,208.7581 86.7041,209.8362 Q86.0166,210.8987 86.0166,212.9925 Q86.0166,215.0862 86.7041,216.1644 Q87.3916,217.2269 88.7354,217.2269 Q89.3604,217.2269 89.9541,216.9612 Q90.5479,216.68 91.1729,216.1019 L91.1729,218.8206 Z " fill="#000000"/><text fill="#000000" font-family="sans-serif" font-size="14" lengthAdjust="spacing" textLength="31.9102" x="108.7041" y="218.0267">User</text><line style="stroke:#181818;stroke-width:0.5;" x1="8" x2="208.8184" y1="229.18" y2="229.18"/><rect fill="none" height="6" style="stroke:#C82930;stroke-width:1;" width="6" x="15" y="239.8284"/><text fill="#000000" font-family="sans-serif" font-size="14" lengthAdjust="spacing" textLength="57.3467" x="27" y="246.1751">id: UUID</text><rect fill="none" height="6" style="stroke:#C82930;stroke-width:1;" width="6" x="15" y="256.1253"/><text fill="#000000" font-family="sans-serif" font-size="14" lengthAdjust="spacing" textLength="121.1875" x="27" y="262.472">username: String</text><rect fill="none" height="6" style="stroke:#C82930;stroke-width:1;" width="6" x="15" y="272.4222"/><text fill="#000000" font-family="sans-serif" font-size="14" lengthAdjust="spacing" textLength="89.5576" x="27" y="278.7689">email: String</text><rect fill="none" height="6" style="stroke:#C82930;stroke-width:1;" width="6" x="15" y="288.7191"/><text fill="#000000" font-family="sans-serif" font-size="14" lengthAdjust="spacing" textLength="117.6602" x="27" y="295.0657">password: String</text><rect fill="none" height="6" style="stroke:#C82930;stroke-width:1;" width="6" x="15" y="305.0159"/><text fill="#000000" font-family="sans-serif" font-size="14" lengthAdjust="spacing" textLength="142.666" x="27" y="311.3626">inventory: Inventory</text><line style="stroke:#181818;stroke-width:0.5;" x1="8" x2="208.8184" y1="318.6644" y2="318.6644"/><ellipse cx="18" cy="332.3128" fill="#84BE84" rx="3" ry="3" style="stroke:#038048;stroke-width:1;"/><text fill="#000000" font-family="sans-serif" font-size="14" lengthAdjust="spacing" textLength="110.8857" x="27" y="335.6595">login(): Boolean</text><ellipse cx="18" cy="348.6097" fill="#84BE84" rx="3" ry="3" style="stroke:#038048;stroke-width:1;"/><text fill="#000000" font-family="sans-serif" font-size="14" lengthAdjust="spacing" textLength="93.9873" x="27" y="351.9564">logout(): void</text><ellipse cx="18" cy="364.9066" fill="#84BE84" rx="3" ry="3" style="stroke:#038048;stroke-width:1;"/><text fill="#000000" font-family="sans-serif" font-size="14" lengthAdjust="spacing" textLength="143.1309" x="27" y="368.2532">updateProfile(): void</text><ellipse cx="18" cy="381.2034" fill="#84BE84" rx="3" ry="3" style="stroke:#038048;stroke-width:1;"/><text fill="#000000" font-family="sans-serif" font-size="14" lengthAdjust="spacing" textLength="176.8184" x="27" y="384.5501">getInventory(): Inventory</text></g><!--class Error--><g class="entity" data-entity="Error" data-source-line="43" data-uid="ent0006" id="entity_Error"><rect fill="#F1F1F1" height="96.8906" rx="2.5" ry="2.5" style="stroke:#181818;stroke-width:0.5;" width="160.1074" x="244.36" y="246.07"/><ellipse cx="302.8244" cy="262.07" fill="#ADD1B2" rx="11" ry="11" style="stroke:#181818;stroke-width:1;"/><path d="M305.7931,267.7106 Q305.215,268.0075 304.5744,268.1481 Q303.9337,268.3044 303.2306,268.3044 Q300.7306,268.3044 299.4025,266.6637 Q298.09,265.0075 298.09,261.8825 Q298.09,258.7575 299.4025,257.1012 Q300.7306,255.445 303.2306,255.445 Q303.9337,255.445 304.5744,255.6012 Q305.2306,255.7575 305.7931,256.0544 L305.7931,258.7731 Q305.1681,258.195 304.5744,257.9294 Q303.9806,257.6481 303.3556,257.6481 Q302.0119,257.6481 301.3244,258.7262 Q300.6369,259.7887 300.6369,261.8825 Q300.6369,263.9762 301.3244,265.0544 Q302.0119,266.1169 303.3556,266.1169 Q303.9806,266.1169 304.5744,265.8512 Q305.1681,265.57 305.7931,264.9919 L305.7931,267.7106 Z " fill="#000000"/><text fill="#000000" font-family="sans-serif" font-size="14" lengthAdjust="spacing" textLength="34.6787" x="323.3244" y="266.9167">Error</text><line style="stroke:#181818;stroke-width:0.5;" x1="245.36" x2="403.4674" y1="278.07" y2="278.07"/><rect fill="none" height="6" style="stroke:#C82930;stroke-width:1;" width="6" x="252.36" y="288.7184"/><text fill="#000000" font-family="sans-serif" font-size="14" lengthAdjust="spacing" textLength="113.8662" x="264.36" y="295.0651">message: String</text><rect fill="none" height="6" style="stroke:#C82930;stroke-width:1;" width="6" x="252.36" y="305.0153"/><text fill="#000000" font-family="sans-serif" font-size="14" lengthAdjust="spacing" textLength="93.29" x="264.36" y="311.362">code: Integer</text><line style="stroke:#181818;stroke-width:0.5;" x1="245.36" x2="403.4674" y1="318.6637" y2="318.6637"/><ellipse cx="255.36" cy="332.3122" fill="#84BE84" rx="3" ry="3" style="stroke:#038048;stroke-width:1;"/><text fill="#000000" font-family="sans-serif" font-size="14" lengthAdjust="spacing" textLength="134.1074" x="264.36" y="335.6589">displayError(): void</text></g><!--class System--><g class="entity" data-entity="System" data-source-line="49" data-uid="ent0007" id="entity_System"><rect fill="#F1F1F1" height="113.1875" rx="2.5" ry="2.5" style="stroke:#181818;stroke-width:0.5;" width="195.2441" x="118.79" y="7"/><ellipse cx="186.059" cy="23" fill="#ADD1B2" rx="11" ry="11" style="stroke:#181818;stroke-width:1;"/><path d="M189.0278,28.6406 Q188.4497,28.9375 187.809,29.0781 Q187.1684,29.2344 186.4653,29.2344 Q183.9653,29.2344 182.6372,27.5938 Q181.3247,25.9375 181.3247,22.8125 Q181.3247,19.6875 182.6372,18.0313 Q183.9653,16.375 186.4653,16.375 Q187.1684,16.375 187.809,16.5313 Q188.4653,16.6875 189.0278,16.9844 L189.0278,19.7031 Q188.4028,19.125 187.809,18.8594 Q187.2153,18.5781 186.5903,18.5781 Q185.2465,18.5781 184.559,19.6563 Q183.8715,20.7188 183.8715,22.8125 Q183.8715,24.9063 184.559,25.9844 Q185.2465,27.0469 186.5903,27.0469 Q187.2153,27.0469 187.809,26.7813 Q188.4028,26.5 189.0278,25.9219 L189.0278,28.6406 Z " fill="#000000"/><text fill="#000000" font-family="sans-serif" font-size="14" lengthAdjust="spacing" textLength="52.2061" x="206.559" y="27.8467">System</text><line style="stroke:#181818;stroke-width:0.5;" x1="119.79" x2="313.0341" y1="39" y2="39"/><rect fill="none" height="6" style="stroke:#C82930;stroke-width:1;" width="6" x="126.79" y="49.6484"/><text fill="#000000" font-family="sans-serif" font-size="14" lengthAdjust="spacing" textLength="102.2246" x="138.79" y="55.9951">version: String</text><rect fill="none" height="6" style="stroke:#C82930;stroke-width:1;" width="6" x="126.79" y="65.9453"/><text fill="#000000" font-family="sans-serif" font-size="14" lengthAdjust="spacing" textLength="162.1621" x="138.79" y="72.292">lastUpdated: DateTime</text><line style="stroke:#181818;stroke-width:0.5;" x1="119.79" x2="313.0341" y1="79.5938" y2="79.5938"/><ellipse cx="129.79" cy="93.2422" fill="#84BE84" rx="3" ry="3" style="stroke:#038048;stroke-width:1;"/><text fill="#000000" font-family="sans-serif" font-size="14" lengthAdjust="spacing" textLength="166.79" x="138.79" y="96.5889">handleError(Error): void</text><ellipse cx="129.79" cy="109.5391" fill="#84BE84" rx="3" ry="3" style="stroke:#038048;stroke-width:1;"/><text fill="#000000" font-family="sans-serif" font-size="14" lengthAdjust="spacing" textLength="169.2441" x="138.79" y="112.8857">validateInput(): Boolean</text></g><!--link User to Inventory--><g class="link" data-entity-1="User" data-entity-2="Inventory" data-source-line="56" data-uid="lnk8" id="link_User_Inventory"><path codeLine="56" d="M173.93,392.03 C191.11,417.35 209.45,444.37 225.98,468.72" fill="none" id="User-Inventory" style="stroke:#181818;stroke-width:1;"/><polygon fill="#000000" points="213.2179,434.5635,210.5701,425.429,205.7066,428.7298,213.2179,434.5635" style="stroke:#000000;stroke-width:1;"/><text fill="#000000" font-family="sans-serif" font-size="13" lengthAdjust="spacing" textLength="33.5981" x="219.41" y="434.9269">owns</text><text fill="#000000" font-family="sans-serif" font-size="13" lengthAdjust="spacing" textLength="8.271" x="170.4579" y="411.8137">1</text><text fill="#000000" font-family="sans-serif" font-size="13" lengthAdjust="spacing" textLength="8.271" x="212.7878" y="457.8948">1</text></g><!--link Inventory to Item--><g class="link" data-entity-1="Inventory" data-entity-2="Item" data-source-line="57" data-uid="lnk9" id="link_Inventory_Item"><path codeLine="57" d="M263.57,631.41 C258.5,655.61 252.9,682.41 247.64,707.55" fill="none" id="Inventory-Item" style="stroke:#181818;stroke-width:1;"/><polygon fill="#000000" points="260.3861,674.3904,265.115,666.1389,259.3617,664.9352,260.3861,674.3904" style="stroke:#000000;stroke-width:1;"/><text fill="#000000" font-family="sans-serif" font-size="13" lengthAdjust="spacing" textLength="55.0278" x="270.41" y="673.9969">contains</text><text fill="#000000" font-family="sans-serif" font-size="13" lengthAdjust="spacing" textLength="8.271" x="253.7904" y="651.132">1</text><text fill="#000000" font-family="sans-serif" font-size="13" lengthAdjust="spacing" textLength="6.5" x="242.9238" y="696.895">*</text></g><!--link Item to Category--><g class="link" data-entity-1="Item" data-entity-2="Category" data-source-line="58" data-uid="lnk10" id="link_Item_Category"><path codeLine="58" d="M164.96,903.05 C160.71,912.76 157.07,922.7 154.41,932.61 C150.14,948.52 153.69,964.55 160.87,979.29" fill="none" id="Item-Category" style="stroke:#181818;stroke-width:1;"/><polygon fill="#000000" points="159.1422,946.1692,162.5614,937.2946,156.692,936.9797,159.1422,946.1692" style="stroke:#000000;stroke-width:1;"/><text fill="#000000" font-family="sans-serif" font-size="13" lengthAdjust="spacing" textLength="66.9741" x="168.41" y="945.6769">belongsTo</text><text fill="#000000" font-family="sans-serif" font-size="13" lengthAdjust="spacing" textLength="8.271" x="152.2974" y="922.5243">1</text><text fill="#000000" font-family="sans-serif" font-size="13" lengthAdjust="spacing" textLength="8.271" x="146.2635" y="968.4277">1</text></g><!--link Category to Item--><g class="link" data-entity-1="Category" data-entity-2="Item" data-source-line="59" data-uid="lnk11" id="link_Category_Item"><path codeLine="59" d="M234.53,979.15 C236.56,969.32 238.29,959.24 239.41,949.61 C241.16,934.47 241.4,918.42 240.74,902.73" fill="none" id="Category-Item" style="stroke:#181818;stroke-width:1;"/><polygon fill="#000000" points="245.815,936.1928,242.1531,944.9702,248.0116,945.4462,245.815,936.1928" style="stroke:#000000;stroke-width:1;"/><text fill="#000000" font-family="sans-serif" font-size="13" lengthAdjust="spacing" textLength="55.0278" x="254.41" y="945.6769">contains</text><text fill="#000000" font-family="sans-serif" font-size="13" lengthAdjust="spacing" textLength="8.271" x="227.8972" y="968.7263">1</text><text fill="#000000" font-family="sans-serif" font-size="13" lengthAdjust="spacing" textLength="6.5" x="235.5171" y="922.5101">*</text></g><!--link User to Category--><g class="link" data-entity-1="User" data-entity-2="Category" data-source-line="60" data-uid="lnk12" id="link_User_Category"><path codeLine="60" d="M92.88,392.18 C76.99,514.15 61.37,728.97 114.41,902.61 C122.86,930.26 139.34,956.87 156.68,979.36" fill="none" id="User-Category" style="stroke:#181818;stroke-width:1;"/><polygon fill="#000000" points="84.9501,674.4672,86.8948,665.1575,81.0513,665.7925,84.9501,674.4672" style="stroke:#000000;stroke-width:1;"/><text fill="#000000" font-family="sans-serif" font-size="13" lengthAdjust="spacing" textLength="59.8584" x="93.41" y="673.9969">manages</text><text fill="#000000" font-family="sans-serif" font-size="13" lengthAdjust="spacing" textLength="8.271" x="83.4558" y="411.9748">1</text><text fill="#000000" font-family="sans-serif" font-size="13" lengthAdjust="spacing" textLength="6.5" x="143.7371" y="968.5053">*</text></g><!--link Inventory to Category--><g class="link" data-entity-1="Inventory" data-entity-2="Category" data-source-line="61" data-uid="lnk13" id="link_Inventory_Category"><path codeLine="61" d="M323.61,631.4 C327.74,641.17 331.47,651.15 334.41,660.93 C355.54,731.34 349.35,862.41 340.41,902.61 C334,931.43 316.6,957.55 296.84,979.24" fill="none" id="Inventory-Category" style="stroke:#181818;stroke-width:1;"/><polygon fill="#000000" points="353.0263,810.3217,356.6507,801.5288,350.7901,801.0777,353.0263,810.3217" style="stroke:#000000;stroke-width:1;"/><text fill="#000000" font-family="sans-serif" font-size="13" lengthAdjust="spacing" textLength="55.0278" x="362.41" y="809.8369">contains</text><text fill="#000000" font-family="sans-serif" font-size="13" lengthAdjust="spacing" textLength="8.271" x="318.9901" y="651.1211">1</text><text fill="#000000" font-family="sans-serif" font-size="13" lengthAdjust="spacing" textLength="6.5" x="299.2271" y="968.3722">*</text></g><!--link System to Error--><g class="link" data-entity-1="System" data-entity-2="Error" data-source-line="62" data-uid="lnk14" id="link_System_Error"><path codeLine="62" d="M242.83,120.59 C260.94,158.98 284.71,209.36 301.91,245.83" fill="none" id="System-Error" style="stroke:#181818;stroke-width:1;"/><polygon fill="#000000" points="270.5432,163.2685,269.3422,153.8341,264.0262,156.3418,270.5432,163.2685" style="stroke:#000000;stroke-width:1;"/><text fill="#000000" font-family="sans-serif" font-size="13" lengthAdjust="spacing" textLength="51.0796" x="277.41" y="163.2469">handles</text><text fill="#000000" font-family="sans-serif" font-size="13" lengthAdjust="spacing" textLength="8.271" x="237.4377" y="140.122">1</text><text fill="#000000" font-family="sans-serif" font-size="13" lengthAdjust="spacing" textLength="6.5" x="292.3587" y="235.0052">*</text></g><!--link System to User--><g class="link" data-entity-1="System" data-entity-2="User" data-source-line="63" data-uid="lnk15" id="link_System_User"><path codeLine="63" d="M189.65,120.27 C184.89,130.22 179.99,140.5 175.41,150.18 C168.3,165.21 160.81,181.13 153.52,196.7" fill="none" id="System-User" style="stroke:#181818;stroke-width:1;"/><polygon fill="#000000" points="178.2731,163.2668,184.7958,156.3454,179.4818,153.8333,178.2731,163.2668" style="stroke:#000000;stroke-width:1;"/><text fill="#000000" font-family="sans-serif" font-size="13" lengthAdjust="spacing" textLength="59.8584" x="189.41" y="163.2469">manages</text><text fill="#000000" font-family="sans-serif" font-size="13" lengthAdjust="spacing" textLength="8.271" x="177.9174" y="140.1665">1</text><text fill="#000000" font-family="sans-serif" font-size="13" lengthAdjust="spacing" textLength="6.5" x="150.6309" y="186.0376">*</text></g><!--SRC=[XLFBJiCm4BptAwoUsg8Uk5ge1rgG8d50Qli19bx2Ieuts6wg2l7lsCxBJGfSyfXTxyxCUdCbh6MPWv9zpHXRe-JiUCnsuLkB4ZZREuEw2FyIR6wmSaWwXNFXe21puMpRVWNqyoIqG-VHJ7iKZ0VlX9IXrMB9MKqe0tIgf3yrHYKecA85kDt08KHQ5j-pMHw5T0p-5HEeTCbJEhSY3QL9f6-TwHgqkzaRlGxBsGjQzn0qRHBR4Bf8LtgJE7MWlkmY_2Ty39HKHukU3PM_fddF3kI42h0Dh9Dn-DYsPn5Y8nwzjgC5CvLrykZuZa0fKAL0vS-VoSWKmuui7rmBV1GL6CVwIAH0w1QZavkEwDNGEoeONO_1XcLQknVoP0orIagmLXHNv7EIS6MGH5ifSOcdfXFVNso_DpKOEzeBd-EEaQiNl_El0vOGgdu8BHKqHUCpqL0BXN4XTDMexgpmNUCKvlTpjbx7rt3ZEAEpjcmp6w0kRpLljfkpdBGJsAG59AdKhmrdRw185_P0Fgs7_onsHMjrLQmKsblyAx4aCwdNsfhaDLFZh37kTavaaNJy0G00]--></g></svg>